<?xml version="1.0" ?><svg height="32px" version="1.1" viewBox="0 0 32 32" width="32px" xmlns="http://www.w3.org/2000/svg" xmlns:xlink="http://www.w3.org/1999/xlink"><title/><desc/><defs/><g fill="none" fill-rule="evenodd" id="Page-1" stroke="none" stroke-width="1"><g id="number-1"><g id="Page-1" transform="translate(9.000000, 2.000000)"><path d="M8.8813,25.476 L8.8813,8.489 C5.7203,10.916 3.5923,12.129 2.4973,12.129 C1.9743,12.129 1.5113,11.921 1.1063,11.504 C0.7023,11.087 0.5003,10.605 0.5003,10.057 C0.5003,9.423 0.6993,8.956 1.0973,8.657 C1.4953,8.359 2.1983,7.973 3.2063,7.5 C4.7123,6.791 5.9163,6.044 6.8183,5.26 C7.7213,4.476 8.5203,3.599 9.2173,2.628 C9.9143,1.657 10.3683,1.06 10.5803,0.836 C10.7913,0.612 11.1893,0.5 11.7743,0.5 C12.4343,0.5 12.9633,0.755 13.3613,1.265 C13.7593,1.776 13.9583,2.479 13.9583,3.375 L13.9583,24.748 C13.9583,27.249 13.1063,28.5 11.4013,28.5 C10.6423,28.5 10.0323,28.245 9.5723,27.735 C9.1113,27.224 8.8813,26.472 8.8813,25.476" fill="#2FBBF4" id="Fill-1"/><path d="M8.8813,25.476 L8.8813,8.489 C5.7203,10.916 3.5923,12.129 2.4973,12.129 C1.9743,12.129 1.5113,11.921 1.1063,11.504 C0.7023,11.087 0.5003,10.605 0.5003,10.057 C0.5003,9.423 0.6993,8.956 1.0973,8.657 C1.4953,8.359 2.1983,7.973 3.2063,7.5 C4.7123,6.791 5.9163,6.044 6.8183,5.26 C7.7213,4.476 8.5203,3.599 9.2173,2.628 C9.9143,1.657 10.3683,1.06 10.5803,0.836 C10.7913,0.612 11.1893,0.5 11.7743,0.5 C12.4343,0.5 12.9633,0.755 13.3613,1.265 C13.7593,1.776 13.9583,2.479 13.9583,3.375 L13.9583,24.748 C13.9583,27.249 13.1063,28.5 11.4013,28.5 C10.6423,28.5 10.0323,28.245 9.5723,27.735 C9.1113,27.224 8.8813,26.472 8.8813,25.476 L8.8813,25.476 Z" id="Stroke-3" stroke="#092933" stroke-linejoin="round"/><path d="M3.8436,8.8584 C5.4686,8.0924 6.7996,7.2634 7.8026,6.3914" id="Stroke-5" stroke="#FFFFFF" stroke-dasharray="1,2,6,2,3" stroke-linecap="round" stroke-linejoin="round"/><path d="M11.4012,27 C10.7842,27 10.3082,26.804 9.9432,26.399 C9.5702,25.986 9.3812,25.339 9.3812,24.476 L9.3812,25.476 C9.3812,26.339 9.5702,26.986 9.9432,27.399 C10.3082,27.804 10.7842,28 11.4012,28 C12.2842,28 13.4592,27.663 13.4592,24.748 L13.4592,23.748 C13.4592,26.663 12.2842,27 11.4012,27" fill="#332E09" id="Fill-7" opacity="0.203766325"/></g></g></g></svg>