<?xml version="1.0" ?><svg height="32px" version="1.1" viewBox="0 0 32 32" width="32px" xmlns="http://www.w3.org/2000/svg" xmlns:xlink="http://www.w3.org/1999/xlink"><title/><desc/><defs/><g fill="none" fill-rule="evenodd" id="Page-1" stroke="none" stroke-width="1"><g id="number-2"><g id="Page-1" transform="translate(6.000000, 2.000000)"><path d="M7.0302,24.02 L16.9392,24.02 C17.9262,24.02 18.6792,24.222 19.1982,24.627 C19.7172,25.032 19.9762,25.583 19.9762,26.279 C19.9762,26.899 19.7712,27.424 19.3592,27.855 C18.9482,28.285 18.3252,28.5 17.4902,28.5 L3.5182,28.5 C2.5692,28.5 1.8292,28.237 1.2972,27.712 C0.7662,27.187 0.5002,26.57 0.5002,25.861 C0.5002,25.406 0.6712,24.801 1.0122,24.048 C1.3542,23.295 1.7272,22.704 2.1322,22.274 C3.8162,20.527 5.3342,19.031 6.6882,17.784 C8.0422,16.538 9.0112,15.718 9.5932,15.326 C10.6302,14.592 11.4942,13.855 12.1842,13.114 C12.8742,12.374 13.3992,11.615 13.7592,10.836 C14.1202,10.058 14.3012,9.295 14.3012,8.549 C14.3012,7.739 14.1082,7.014 13.7222,6.375 C13.3362,5.736 12.8102,5.239 12.1462,4.885 C11.4822,4.531 10.7572,4.354 9.9722,4.354 C8.3152,4.354 7.0112,5.081 6.0622,6.537 C5.9352,6.726 5.7232,7.245 5.4262,8.093 C5.1292,8.941 4.7932,9.593 4.4202,10.048 C4.0462,10.504 3.4992,10.732 2.7782,10.732 C2.1452,10.732 1.6202,10.523 1.2022,10.105 C0.7852,9.688 0.5762,9.118 0.5762,8.397 C0.5762,7.524 0.7722,6.613 1.1642,5.663 C1.5572,4.714 2.1422,3.854 2.9202,3.082 C3.6982,2.31 4.6862,1.686 5.8822,1.212 C7.0772,0.737 8.4792,0.5 10.0862,0.5 C12.0232,0.5 13.6742,0.804 15.0412,1.411 C15.9272,1.816 16.7052,2.373 17.3762,3.082 C18.0462,3.79 18.5692,4.61 18.9422,5.54 C19.3152,6.47 19.5022,7.435 19.5022,8.435 C19.5022,10.004 19.1132,11.431 18.3342,12.716 C17.5562,14 16.7622,15.006 15.9522,15.734 C15.1422,16.462 13.7852,17.604 11.8802,19.16 C9.9762,20.717 8.6692,21.926 7.9602,22.786 C7.6562,23.128 7.3462,23.539 7.0302,24.02" fill="#2FBBF4" id="Fill-1"/><path d="M7.0302,24.02 L16.9392,24.02 C17.9262,24.02 18.6792,24.222 19.1982,24.627 C19.7172,25.032 19.9762,25.583 19.9762,26.279 C19.9762,26.899 19.7712,27.424 19.3592,27.855 C18.9482,28.285 18.3252,28.5 17.4902,28.5 L3.5182,28.5 C2.5692,28.5 1.8292,28.237 1.2972,27.712 C0.7662,27.187 0.5002,26.57 0.5002,25.861 C0.5002,25.406 0.6712,24.801 1.0122,24.048 C1.3542,23.295 1.7272,22.704 2.1322,22.274 C3.8162,20.527 5.3342,19.031 6.6882,17.784 C8.0422,16.538 9.0112,15.718 9.5932,15.326 C10.6302,14.592 11.4942,13.855 12.1842,13.114 C12.8742,12.374 13.3992,11.615 13.7592,10.836 C14.1202,10.058 14.3012,9.295 14.3012,8.549 C14.3012,7.739 14.1082,7.014 13.7222,6.375 C13.3362,5.736 12.8102,5.239 12.1462,4.885 C11.4822,4.531 10.7572,4.354 9.9722,4.354 C8.3152,4.354 7.0112,5.081 6.0622,6.537 C5.9352,6.726 5.7232,7.245 5.4262,8.093 C5.1292,8.941 4.7932,9.593 4.4202,10.048 C4.0462,10.504 3.4992,10.732 2.7782,10.732 C2.1452,10.732 1.6202,10.523 1.2022,10.105 C0.7852,9.688 0.5762,9.118 0.5762,8.397 C0.5762,7.524 0.7722,6.613 1.1642,5.663 C1.5572,4.714 2.1422,3.854 2.9202,3.082 C3.6982,2.31 4.6862,1.686 5.8822,1.212 C7.0772,0.737 8.4792,0.5 10.0862,0.5 C12.0232,0.5 13.6742,0.804 15.0412,1.411 C15.9272,1.816 16.7052,2.373 17.3762,3.082 C18.0462,3.79 18.5692,4.61 18.9422,5.54 C19.3152,6.47 19.5022,7.435 19.5022,8.435 C19.5022,10.004 19.1132,11.431 18.3342,12.716 C17.5562,14 16.7622,15.006 15.9522,15.734 C15.1422,16.462 13.7852,17.604 11.8802,19.16 C9.9762,20.717 8.6692,21.926 7.9602,22.786 C7.6562,23.128 7.3462,23.539 7.0302,24.02 L7.0302,24.02 Z" id="Stroke-3" stroke="#092933" stroke-linejoin="round"/><path d="M3.9768,4.1458 C4.6058,3.5218 5.4338,3.0038 6.4348,2.6068 C7.4488,2.2048 8.6778,1.9998 10.0868,1.9998" id="Stroke-5" stroke="#FFFFFF" stroke-dasharray="1,2,6,2,3" stroke-linecap="round" stroke-linejoin="round"/><path d="M19.4041,25.7861 C19.3301,26.0551 19.2001,26.2971 18.9981,26.5091 C18.6861,26.8351 18.1791,27.0001 17.4901,27.0001 L3.5181,27.0001 C2.6981,27.0001 2.0871,26.7891 1.6491,26.3571 C1.3481,26.0591 1.1621,25.7321 1.0701,25.3721 C1.0211,25.5811 1.0001,25.7481 1.0001,25.8611 C1.0001,26.4361 1.2121,26.9251 1.6491,27.3571 C2.0871,27.7891 2.6981,28.0001 3.5181,28.0001 L17.4901,28.0001 C18.1791,28.0001 18.6861,27.8351 18.9981,27.5091 C19.3201,27.1721 19.4771,26.7701 19.4771,26.2781 C19.4771,26.0991 19.4471,25.9381 19.4041,25.7861" fill="#332E09" id="Fill-7" opacity="0.203766325"/></g></g></g></svg>