<?xml version="1.0" standalone="no"?>
<!DOCTYPE svg PUBLIC "-//W3C//DTD SVG 20010904//EN"
 "http://www.w3.org/TR/2001/REC-SVG-20010904/DTD/svg10.dtd">
<svg version="1.0" xmlns="http://www.w3.org/2000/svg"
 width="331.000000pt" height="479.000000pt" viewBox="0 0 331.000000 479.000000"
 preserveAspectRatio="xMidYMid meet">

<g transform="translate(0.000000,479.000000) scale(0.100000,-0.100000)"
fill="#000000" stroke="none">
<path d="M2557 4682 l-38 -3 7 -237 c3 -130 7 -237 8 -238 0 0 43 2 94 4 l93
4 -3 42 -3 41 -47 3 -48 3 0 50 0 49 40 0 41 0 -3 47 -3 48 -38 -3 c-33 -3
-37 -1 -38 20 0 13 -2 35 -4 50 -3 26 -1 27 43 30 l46 3 -1 38 c0 20 -1 41 -2
46 -1 9 -63 10 -144 3z"/>
<path d="M2399 4672 c-41 -3 -39 3 -56 -152 l-7 -65 -13 75 c-14 77 -21 119
-22 133 -1 4 -28 7 -62 7 l-61 0 7 -147 c4 -81 9 -181 10 -222 3 -120 -1 -111
52 -111 l46 0 -5 98 c-6 100 -5 97 23 -45 9 -46 14 -53 34 -53 22 0 23 5 30
83 10 125 19 133 25 22 l5 -100 40 0 40 0 -1 145 c-1 321 -1 327 -26 331 -13
2 -39 3 -59 1z"/>
<path d="M1325 4654 c-6 -3 -7 -46 -3 -121 4 -65 10 -158 13 -208 3 -49 8
-105 10 -122 6 -32 8 -33 53 -33 50 0 103 25 121 57 5 10 14 52 20 93 18 132
-16 278 -74 316 -23 15 -117 27 -140 18z m124 -165 c16 -74 14 -181 -4 -205
-11 -15 -15 -16 -15 -4 0 8 -3 40 -5 70 -15 198 -15 213 -1 201 8 -7 19 -35
25 -62z"/>
<path d="M1576 4547 c3 -62 9 -170 12 -242 l7 -130 35 -1 c66 -1 64 -8 55 175
-4 91 -9 198 -10 236 l-3 70 -50 2 -51 2 5 -112z"/>
<path d="M1723 4643 c-3 -8 -3 -81 0 -162 4 -80 7 -181 7 -223 l0 -78 50 0 50
0 -5 103 c-3 69 -2 91 4 67 10 -37 31 -150 31 -162 0 -5 23 -8 51 -8 l51 0 -7
233 c-4 127 -9 235 -11 239 -3 4 -22 6 -44 6 l-40 0 -1 -77 -1 -76 -15 65 c-8
36 -17 70 -18 77 -6 18 -95 15 -102 -4z"/>
<path d="M983 4632 l-83 -3 0 -102 c0 -136 4 -147 46 -147 23 0 37 6 44 20 16
30 27 17 34 -38 10 -76 -22 -148 -34 -76 -5 26 -9 29 -45 29 -38 0 -40 -1 -37
-30 5 -55 32 -103 65 -114 48 -17 63 -13 96 24 39 45 45 71 37 151 -8 83 -19
109 -52 130 -24 16 -29 17 -53 3 l-26 -15 4 43 3 44 42 -6 c54 -7 68 3 64 50
-3 44 3 42 -105 37z"/>
<path d="M713 4615 c-17 -7 -36 -22 -42 -33 -12 -22 -18 -98 -9 -108 4 -3 24
-3 46 1 30 5 39 10 36 23 -2 9 0 24 6 32 9 13 11 13 20 0 27 -41 6 -106 -56
-172 l-44 -47 0 -76 0 -75 98 0 c54 0 101 2 103 4 3 3 3 23 1 45 l-4 41 -54 0
c-47 0 -54 3 -54 19 0 11 18 41 40 66 63 72 73 99 65 164 -15 117 -64 155
-152 116z"/>
<path d="M2570 4093 c0 -27 3 -105 7 -175 l6 -128 69 0 68 0 0 35 c0 33 -2 35
-35 35 -33 0 -35 2 -35 35 0 31 3 35 25 35 22 0 25 4 25 35 0 32 -3 35 -28 35
-26 0 -29 4 -30 35 -1 34 0 35 33 35 33 0 35 2 35 35 l0 35 -70 0 -70 0 0 -47z"/>
<path d="M2145 3983 c4 -95 3 -143 -3 -139 -6 3 -13 67 -17 141 l-7 135 -35 0
-34 0 6 -82 c16 -221 16 -226 36 -247 26 -28 89 -29 114 -2 16 18 16 34 9 178
l-9 157 -34 2 -34 2 8 -145z"/>
<path d="M2235 4120 c-9 -14 15 -334 26 -340 10 -7 86 3 93 11 38 50 48 118
22 154 -11 15 -11 22 0 44 20 37 17 63 -9 102 -21 31 -27 34 -75 35 -29 1 -54
-2 -57 -6z m85 -90 c0 -10 -4 -22 -10 -25 -6 -4 -10 7 -10 25 0 18 4 29 10 25
6 -3 10 -15 10 -25z m2 -162 c-9 -9 -12 -4 -11 23 0 32 1 33 11 11 8 -17 8
-26 0 -34z"/>
<path d="M2415 3963 c4 -92 8 -174 10 -180 3 -9 23 -12 67 -9 l63 4 0 33 c0
31 -2 34 -27 31 -17 -2 -28 2 -29 10 -1 7 -4 72 -8 143 l-6 130 -38 3 -38 3 6
-168z"/>
<path d="M1685 3998 c4 -68 9 -132 10 -143 1 -11 3 -37 4 -59 l1 -39 45 6 c25
2 55 13 65 22 56 51 52 247 -6 310 -19 20 -32 25 -75 25 l-52 0 8 -122z m96
-4 c11 -51 11 -125 -1 -144 -5 -8 -11 -12 -13 -10 -3 3 -7 51 -9 108 -5 104 5
123 23 46z"/>
<path d="M1889 4088 c-17 -29 -19 -47 -17 -133 4 -142 42 -208 105 -184 53 20
76 123 53 242 -14 79 -37 107 -86 107 -28 0 -38 -6 -55 -32z m76 -145 c4 -68
3 -103 -4 -103 -15 0 -20 26 -21 115 -3 104 -2 111 9 100 5 -6 12 -56 16 -112z"/>
<path d="M1074 4020 c3 -47 5 -127 6 -177 l0 -93 40 0 40 0 -6 108 c-3 59 -6
139 -7 177 l-2 70 -38 0 -39 1 6 -86z"/>
<path d="M1386 4101 c-2 -3 -6 -58 -10 -121 -4 -63 -9 -139 -12 -167 l-6 -53
36 0 c33 0 36 2 36 30 0 39 27 41 32 3 3 -24 8 -28 39 -31 l36 -3 -9 58 c-6
32 -17 110 -27 173 l-16 115 -48 1 c-26 1 -49 -1 -51 -5z m64 -196 c0 -14 -4
-25 -10 -25 -5 0 -10 11 -10 25 0 14 5 25 10 25 6 0 10 -11 10 -25z"/>
<path d="M701 4091 c-13 -8 -13 -28 -3 -138 7 -70 12 -147 12 -170 0 -43 0
-43 36 -43 l35 0 -7 69 -6 69 30 16 c17 9 38 26 46 38 31 44 11 134 -33 158
-24 12 -91 13 -110 1z m84 -81 c8 -13 -4 -50 -16 -50 -5 0 -9 14 -9 30 0 30
13 40 25 20z"/>
<path d="M948 4093 c-43 -5 -44 -7 -53 -158 -3 -55 -8 -119 -12 -142 l-5 -43
35 0 c31 0 36 3 39 27 4 36 26 41 30 6 3 -24 8 -28 40 -31 37 -3 38 -2 32 25
-3 15 -15 93 -27 172 -12 79 -26 145 -32 146 -5 1 -27 0 -47 -2z m22 -198 c0
-14 -4 -25 -10 -25 -5 0 -10 11 -10 25 0 14 5 25 10 25 6 0 10 -11 10 -25z"/>
<path d="M1198 4083 c-42 -48 -30 -103 38 -175 43 -47 54 -71 34 -83 -6 -3
-14 5 -20 19 -7 20 -17 26 -40 26 -27 0 -30 -3 -30 -31 0 -39 48 -89 85 -89
42 0 75 41 75 94 0 41 -5 52 -50 101 -47 52 -63 85 -40 85 6 0 10 -9 10 -21 0
-17 5 -20 38 -17 35 3 37 5 34 33 -5 45 -38 75 -82 75 -23 0 -43 -7 -52 -17z"/>
<path d="M1913 3680 c-84 -20 -156 -94 -155 -159 1 -59 8 -65 45 -41 84 55
132 73 209 79 l77 6 18 -38 c9 -22 27 -46 40 -54 13 -9 23 -22 23 -29 0 -8 6
-14 13 -15 6 -1 21 -2 32 -3 17 -1 20 -8 19 -41 0 -23 -8 -56 -17 -74 -10 -20
-13 -39 -8 -45 4 -6 11 -24 15 -41 11 -45 24 -55 70 -55 68 0 80 -26 50 -115
-14 -40 -23 -50 -55 -63 -31 -12 -41 -23 -53 -58 -8 -24 -11 -44 -7 -44 16 0
111 100 144 152 19 30 47 83 62 118 24 57 27 74 23 150 -3 73 -9 94 -38 148
-20 37 -58 86 -96 121 -51 49 -76 63 -141 85 -80 27 -196 34 -270 16z"/>
<path d="M1700 3413 c-24 -23 -43 -51 -46 -70 l-6 -33 46 0 c58 0 95 18 130
64 15 20 33 36 41 36 24 0 45 -30 45 -65 0 -30 5 -36 48 -57 66 -32 146 -32
173 1 22 26 25 74 7 89 -25 20 -124 43 -248 57 -69 8 -131 15 -138 15 -7 0
-31 -17 -52 -37z m365 -45 c27 -12 33 -33 13 -40 -7 -2 -29 -2 -48 2 -27 4
-36 10 -38 28 -3 18 1 22 22 22 14 0 37 -5 51 -12z"/>
<path d="M1676 2965 c4 -22 8 -59 9 -82 1 -31 8 -48 26 -63 45 -40 142 -80
209 -86 95 -10 104 -16 97 -72 -4 -38 -1 -55 19 -89 31 -53 40 -56 17 -5 -11
22 -18 60 -17 94 0 42 -4 59 -14 63 -12 4 -10 11 10 33 14 15 34 43 43 62 10
19 33 55 52 79 37 49 44 78 16 66 -57 -25 -183 -55 -227 -55 -48 0 -145 14
-189 26 -10 3 -27 20 -39 37 l-20 32 8 -40z"/>
<path d="M1686 2774 c-24 -24 -20 -61 9 -80 23 -15 27 -15 50 0 32 21 33 59 3
80 -28 20 -43 20 -62 0z"/>
<path d="M2043 2744 c-8 -21 13 -42 28 -27 13 13 5 43 -11 43 -6 0 -13 -7 -17
-16z"/>
<path d="M1590 2735 c0 -8 5 -15 10 -15 6 0 10 7 10 15 0 8 -4 15 -10 15 -5 0
-10 -7 -10 -15z"/>
<path d="M1795 2706 c-34 -37 -88 -68 -120 -70 -11 -1 -21 -9 -23 -18 -5 -24
14 -23 45 2 14 11 32 20 39 20 7 0 34 18 59 40 25 22 51 40 56 40 6 0 7 5 4
10 -11 17 -27 11 -60 -24z"/>
<path d="M1418 2706 c-51 -25 -20 -106 36 -92 33 8 49 38 37 69 -11 29 -41 39
-73 23z"/>
<path d="M1322 2693 c2 -10 10 -18 18 -18 8 0 16 8 18 18 2 12 -3 17 -18 17
-15 0 -20 -5 -18 -17z"/>
<path d="M1515 2700 c3 -5 10 -10 16 -10 5 0 9 5 9 10 0 6 -7 10 -16 10 -8 0
-12 -4 -9 -10z"/>
<path d="M1917 2694 c3 -8 11 -14 19 -14 21 0 17 17 -5 23 -14 3 -18 1 -14 -9z"/>
<path d="M1603 2684 c-7 -19 11 -39 26 -30 16 10 13 33 -4 40 -9 3 -18 -1 -22
-10z"/>
<path d="M2105 2690 c-3 -5 -1 -10 4 -10 6 0 11 5 11 10 0 6 -2 10 -4 10 -3 0
-8 -4 -11 -10z"/>
<path d="M1070 2676 c-18 -22 -5 -46 25 -46 23 0 26 4 23 27 -3 32 -29 41 -48
19z"/>
<path d="M1215 2680 c-3 -5 1 -10 9 -10 9 0 16 5 16 10 0 6 -4 10 -9 10 -6 0
-13 -4 -16 -10z"/>
<path d="M1896 2675 c-3 -9 -6 -22 -5 -28 0 -7 5 -1 10 12 5 13 8 26 5 28 -2
2 -6 -3 -10 -12z"/>
<path d="M915 2651 c-8 -15 3 -31 21 -31 9 0 14 7 12 17 -4 20 -24 28 -33 14z"/>
<path d="M1265 2650 c-4 -7 -3 -16 3 -22 14 -14 45 -2 40 15 -6 16 -34 21 -43
7z"/>
<path d="M1801 2646 c-9 -10 -8 -16 3 -25 10 -9 16 -8 25 3 9 10 8 16 -3 25
-10 9 -16 8 -25 -3z"/>
<path d="M1944 2645 c-7 -18 3 -35 21 -35 15 0 24 19 18 38 -6 17 -32 15 -39
-3z"/>
<path d="M2070 2631 c-25 -47 36 -83 64 -38 8 12 8 22 0 35 -16 25 -51 27 -64
3z"/>
<path d="M1143 2624 c-8 -21 13 -42 28 -27 13 13 5 43 -11 43 -6 0 -13 -7 -17
-16z"/>
<path d="M1580 2624 c0 -8 5 -12 10 -9 6 4 8 11 5 16 -9 14 -15 11 -15 -7z"/>
<path d="M986 2594 c-7 -19 10 -44 29 -44 19 0 36 25 29 44 -3 9 -16 16 -29
16 -13 0 -26 -7 -29 -16z"/>
<path d="M1882 2580 c0 -14 2 -19 5 -12 2 6 2 18 0 25 -3 6 -5 1 -5 -13z"/>
<path d="M2243 2593 c-18 -6 -16 -43 1 -43 22 0 39 26 24 37 -7 6 -19 8 -25 6z"/>
<path d="M1235 2580 c-4 -7 -3 -16 3 -22 14 -14 45 -2 40 15 -6 16 -34 21 -43
7z"/>
<path d="M810 2565 c-10 -12 -10 -18 0 -30 20 -25 55 -15 55 15 0 30 -35 40
-55 15z"/>
<path d="M1300 2560 c0 -5 7 -10 15 -10 8 0 15 5 15 10 0 6 -7 10 -15 10 -8 0
-15 -4 -15 -10z"/>
<path d="M1674 2559 c-9 -15 11 -33 30 -26 9 4 13 13 10 22 -7 17 -30 20 -40
4z"/>
<path d="M1912 2543 c2 -10 10 -18 18 -18 8 0 16 8 18 18 2 12 -3 17 -18 17
-15 0 -20 -5 -18 -17z"/>
<path d="M1820 2540 c0 -5 5 -10 10 -10 6 0 10 5 10 10 0 6 -4 10 -10 10 -5 0
-10 -4 -10 -10z"/>
<path d="M2122 2538 c-18 -18 -14 -46 7 -58 38 -20 71 13 51 51 -12 21 -40 25
-58 7z"/>
<path d="M1195 2531 c-6 -11 9 -23 19 -14 9 9 7 23 -3 23 -6 0 -12 -4 -16 -9z"/>
<path d="M1992 2523 c2 -10 10 -18 18 -18 8 0 16 8 18 18 2 12 -3 17 -18 17
-15 0 -20 -5 -18 -17z"/>
<path d="M1750 2510 c0 -5 5 -10 10 -10 6 0 10 5 10 10 0 6 -4 10 -10 10 -5 0
-10 -4 -10 -10z"/>
<path d="M944 2495 c-7 -18 12 -45 32 -45 20 0 36 34 22 48 -17 17 -48 15 -54
-3z"/>
<path d="M777 2494 c-9 -10 2 -24 19 -24 8 0 14 7 14 15 0 15 -21 21 -33 9z"/>
<path d="M1837 2494 c-16 -16 -6 -34 19 -34 19 0 25 5 22 17 -3 19 -29 29 -41
17z"/>
<path d="M1040 2470 c0 -11 7 -20 15 -20 8 0 15 9 15 20 0 11 -7 20 -15 20 -8
0 -15 -9 -15 -20z"/>
<path d="M685 2470 c4 -6 11 -8 16 -5 14 9 11 15 -7 15 -8 0 -12 -5 -9 -10z"/>
<path d="M1255 2470 c3 -5 10 -10 16 -10 5 0 9 5 9 10 0 6 -7 10 -16 10 -8 0
-12 -4 -9 -10z"/>
<path d="M1312 2468 c-28 -28 2 -67 34 -43 15 11 17 18 8 31 -14 23 -27 27
-42 12z"/>
<path d="M1950 2460 c0 -5 5 -10 10 -10 6 0 10 5 10 10 0 6 -4 10 -10 10 -5 0
-10 -4 -10 -10z"/>
<path d="M2037 2459 c-37 -21 -8 -77 33 -64 13 4 20 15 20 30 0 29 -28 47 -53
34z"/>
<path d="M736 2453 c-12 -12 -6 -33 9 -33 8 0 15 6 15 14 0 17 -14 28 -24 19z"/>
<path d="M624 2429 c-8 -14 11 -33 25 -25 11 7 4 36 -9 36 -5 0 -12 -5 -16
-11z"/>
<path d="M884 2429 c-10 -17 13 -36 27 -22 12 12 4 33 -11 33 -5 0 -12 -5 -16
-11z"/>
<path d="M1810 2430 c0 -5 5 -10 10 -10 6 0 10 5 10 10 0 6 -4 10 -10 10 -5 0
-10 -4 -10 -10z"/>
<path d="M1870 2426 c0 -16 27 -29 41 -20 19 11 9 34 -16 34 -15 0 -25 -6 -25
-14z"/>
<path d="M2166 2415 c-9 -9 -16 -20 -16 -25 0 -15 32 -41 48 -38 24 5 39 35
26 56 -15 23 -38 26 -58 7z"/>
<path d="M1422 2398 c-7 -7 -12 -24 -12 -38 0 -14 5 -31 12 -38 7 -7 24 -12
38 -12 14 0 31 5 38 12 7 7 12 24 12 38 0 14 -5 31 -12 38 -7 7 -24 12 -38 12
-14 0 -31 -5 -38 -12z"/>
<path d="M2482 2393 c2 -10 10 -18 18 -18 8 0 16 8 18 18 2 12 -3 17 -18 17
-15 0 -20 -5 -18 -17z"/>
<path d="M704 2389 c-10 -17 13 -36 27 -22 12 12 4 33 -11 33 -5 0 -12 -5 -16
-11z"/>
<path d="M2390 2390 c0 -5 5 -10 10 -10 6 0 10 5 10 10 0 6 -4 10 -10 10 -5 0
-10 -4 -10 -10z"/>
<path d="M760 2370 c0 -5 5 -10 10 -10 6 0 10 5 10 10 0 6 -4 10 -10 10 -5 0
-10 -4 -10 -10z"/>
<path d="M1914 2366 c-9 -23 7 -38 26 -26 13 8 13 11 -2 26 -16 17 -18 17 -24
0z"/>
<path d="M2310 2360 c0 -5 7 -10 15 -10 8 0 15 5 15 10 0 6 -7 10 -15 10 -8 0
-15 -4 -15 -10z"/>
<path d="M970 2345 c0 -10 7 -15 18 -13 21 4 19 22 -2 26 -10 2 -16 -3 -16
-13z"/>
<path d="M1140 2341 c-23 -44 -5 -81 40 -81 33 0 50 17 50 50 0 14 -5 31 -12
38 -19 19 -66 15 -78 -7z"/>
<path d="M670 2339 c0 -5 5 -7 10 -4 6 3 10 8 10 11 0 2 -4 4 -10 4 -5 0 -10
-5 -10 -11z"/>
<path d="M1626 2342 c-3 -6 -1 -14 5 -17 15 -10 25 3 12 16 -7 7 -13 7 -17 1z"/>
<path d="M2394 2339 c-9 -15 11 -33 30 -26 9 4 13 13 10 22 -7 17 -30 20 -40
4z"/>
<path d="M2115 2310 c-29 -32 -10 -74 35 -78 55 -6 78 40 40 78 -26 26 -52 25
-75 0z"/>
<path d="M1862 2295 c0 -16 2 -22 5 -12 2 9 2 23 0 30 -3 6 -5 -1 -5 -18z"/>
<path d="M2510 2310 c0 -5 7 -10 15 -10 8 0 15 5 15 10 0 6 -7 10 -15 10 -8 0
-15 -4 -15 -10z"/>
<path d="M720 2300 c0 -5 5 -10 11 -10 5 0 7 5 4 10 -3 6 -8 10 -11 10 -2 0
-4 -4 -4 -10z"/>
<path d="M1704 2299 c-10 -17 13 -36 27 -22 12 12 4 33 -11 33 -5 0 -12 -5
-16 -11z"/>
<path d="M2370 2280 c0 -5 7 -10 15 -10 8 0 15 5 15 10 0 6 -7 10 -15 10 -8 0
-15 -4 -15 -10z"/>
<path d="M2452 2273 c4 -21 33 -25 33 -3 0 8 -8 16 -18 18 -14 3 -18 -1 -15
-15z"/>
<path d="M1887 2266 c-8 -8 -17 -12 -21 -9 -3 4 -6 -2 -6 -13 0 -10 -3 -30 -7
-43 -4 -17 -3 -22 5 -17 7 4 12 18 12 32 0 23 1 24 16 10 19 -20 28 -20 45 0
24 30 -16 67 -44 40z"/>
<path d="M750 2251 c-7 -15 -5 -24 8 -41 32 -40 85 -4 62 41 -14 25 -56 25
-70 0z"/>
<path d="M1779 2254 c-9 -11 -10 -20 -3 -32 15 -23 29 -25 48 -7 12 12 13 21
6 36 -13 23 -33 25 -51 3z"/>
<path d="M1977 2263 c-13 -12 -7 -41 10 -47 21 -8 48 17 40 38 -6 16 -38 22
-50 9z"/>
<path d="M1023 2245 c-7 -20 2 -29 21 -22 9 4 13 13 10 22 -8 19 -23 19 -31 0z"/>
<path d="M1350 2231 c-15 -29 -12 -46 9 -65 26 -24 62 -17 80 16 14 24 14 28
-3 47 -24 27 -72 28 -86 2z"/>
<path d="M930 2230 c0 -5 5 -10 11 -10 5 0 7 5 4 10 -3 6 -8 10 -11 10 -2 0
-4 -4 -4 -10z"/>
<path d="M1613 2233 c-18 -7 -16 -52 3 -60 23 -9 51 23 38 44 -12 19 -23 24
-41 16z"/>
<path d="M563 2214 c-3 -8 -1 -20 6 -27 14 -14 47 15 37 32 -10 16 -36 13 -43
-5z"/>
<path d="M1250 2220 c0 -5 5 -10 10 -10 6 0 10 5 10 10 0 6 -4 10 -10 10 -5 0
-10 -4 -10 -10z"/>
<path d="M2300 2215 c-10 -12 -10 -18 0 -30 7 -8 18 -15 25 -15 19 0 36 25 29
44 -8 20 -38 21 -54 1z"/>
<path d="M2481 2221 c-15 -10 -8 -41 9 -41 15 0 25 29 14 40 -5 5 -15 5 -23 1z"/>
<path d="M1505 2204 c-19 -19 -19 -28 0 -44 21 -17 45 -5 45 24 0 29 -24 40
-45 20z"/>
<path d="M975 2199 c-10 -15 1 -23 20 -15 9 3 13 10 10 16 -8 13 -22 13 -30
-1z"/>
<path d="M867 2184 c-9 -10 2 -24 19 -24 8 0 14 7 14 15 0 15 -21 21 -33 9z"/>
<path d="M660 2166 c-19 -23 -8 -61 18 -64 46 -7 72 47 33 68 -26 14 -36 13
-51 -4z"/>
<path d="M1744 2156 c-10 -8 -15 -20 -11 -30 10 -25 38 -32 53 -12 24 33 -9
66 -42 42z"/>
<path d="M2186 2154 c-21 -21 -20 -47 2 -67 27 -24 59 -21 78 8 15 23 15 27 0
50 -19 29 -56 33 -80 9z"/>
<path d="M946 2141 c-7 -11 18 -33 27 -24 4 3 7 12 7 20 0 15 -26 18 -34 4z"/>
<path d="M1835 2136 c-18 -13 -18 -14 3 -25 20 -11 22 -9 22 14 0 29 0 29 -25
11z"/>
<path d="M444 2132 c-17 -11 -22 -35 -12 -54 12 -24 55 -23 68 1 13 25 13 27
-6 45 -17 17 -33 20 -50 8z"/>
<path d="M1006 2131 c-4 -5 -2 -12 3 -15 5 -4 12 -2 15 3 4 5 2 12 -3 15 -5 4
-12 2 -15 -3z"/>
<path d="M1253 2114 c-3 -8 2 -23 11 -32 15 -15 17 -15 32 0 21 21 11 48 -16
48 -11 0 -23 -7 -27 -16z"/>
<path d="M910 2100 c0 -5 5 -10 10 -10 6 0 10 5 10 10 0 6 -4 10 -10 10 -5 0
-10 -4 -10 -10z"/>
<path d="M1973 2087 c-31 -13 -38 -43 -19 -72 20 -31 56 -32 81 -5 37 41 -11
100 -62 77z"/>
<path d="M1670 2075 c0 -8 9 -15 20 -15 11 0 20 7 20 15 0 8 -9 15 -20 15 -11
0 -20 -7 -20 -15z"/>
<path d="M960 2052 c0 -5 6 -16 13 -27 10 -13 16 -15 21 -6 4 6 2 18 -4 26
-13 16 -30 20 -30 7z"/>
<path d="M602 2033 c-6 -11 -6 -27 -1 -41 7 -18 15 -23 36 -20 25 3 28 7 28
38 0 31 -3 35 -27 38 -18 2 -30 -3 -36 -15z"/>
<path d="M2105 2041 c-6 -11 9 -23 19 -14 9 9 7 23 -3 23 -6 0 -12 -4 -16 -9z"/>
<path d="M520 2019 c0 -5 5 -7 10 -4 6 3 10 8 10 11 0 2 -4 4 -10 4 -5 0 -10
-5 -10 -11z"/>
<path d="M717 2006 c-8 -20 20 -43 35 -28 14 14 3 42 -16 42 -7 0 -16 -6 -19
-14z"/>
<path d="M1763 2004 c-7 -19 2 -28 22 -21 19 8 19 23 0 31 -9 3 -18 -1 -22
-10z"/>
<path d="M1863 1940 c0 -47 2 -66 4 -42 2 23 2 61 0 85 -2 23 -4 4 -4 -43z"/>
<path d="M2382 2011 c-21 -13 -10 -46 16 -49 27 -4 40 22 22 43 -14 17 -20 18
-38 6z"/>
<path d="M1397 2003 c-13 -12 -7 -41 10 -47 21 -8 48 17 40 38 -6 16 -38 22
-50 9z"/>
<path d="M2192 1988 c-14 -14 2 -48 22 -48 20 0 37 25 30 44 -7 19 -35 21 -52
4z"/>
<path d="M2631 1981 c-19 -12 -6 -41 19 -41 16 0 21 5 18 22 -3 25 -17 32 -37
19z"/>
<path d="M2812 1958 c-27 -27 -7 -78 29 -78 23 0 49 38 41 59 -11 31 -48 41
-70 19z"/>
<path d="M524 1945 c-4 -9 -2 -21 4 -27 15 -15 44 -1 40 19 -4 23 -36 29 -44
8z"/>
<path d="M1237 1953 c-4 -3 -7 -17 -7 -30 0 -18 5 -23 25 -23 14 0 28 7 31 15
11 27 -30 58 -49 38z"/>
<path d="M2477 1953 c-11 -10 -8 -41 4 -49 6 -3 18 1 27 9 13 13 13 19 2 31
-14 17 -23 20 -33 9z"/>
<path d="M1086 1923 c-12 -12 -6 -33 9 -33 8 0 15 6 15 14 0 17 -14 28 -24 19z"/>
<path d="M2730 1920 c0 -5 5 -10 10 -10 6 0 10 5 10 10 0 6 -4 10 -10 10 -5 0
-10 -4 -10 -10z"/>
<path d="M363 1884 c-8 -22 18 -37 36 -20 7 8 10 19 7 25 -10 16 -36 13 -43
-5z"/>
<path d="M1622 1888 c-7 -7 -12 -24 -12 -38 0 -14 5 -31 12 -38 7 -7 24 -12
38 -12 32 0 50 17 50 46 0 44 -58 72 -88 42z"/>
<path d="M1154 1866 c-10 -26 4 -48 28 -44 17 2 23 10 23 28 0 18 -6 26 -23
28 -13 2 -25 -3 -28 -12z"/>
<path d="M2626 1864 c-19 -18 -20 -28 -6 -55 12 -21 50 -25 68 -7 18 18 14 56
-7 68 -27 14 -37 13 -55 -6z"/>
<path d="M637 1854 c-16 -16 -6 -35 16 -32 12 2 22 10 22 18 0 16 -26 25 -38
14z"/>
<path d="M974 1835 c-9 -23 3 -45 24 -45 29 0 48 26 32 45 -7 8 -21 15 -32 15
-10 0 -21 -7 -24 -15z"/>
<path d="M1373 1824 c-3 -8 -1 -20 5 -26 16 -16 47 -5 50 20 3 18 -1 22 -23
22 -14 0 -28 -7 -32 -16z"/>
<path d="M260 1815 c0 -9 5 -15 11 -13 6 2 11 8 11 13 0 5 -5 11 -11 13 -6 2
-11 -4 -11 -13z"/>
<path d="M324 1809 c-8 -14 21 -43 35 -35 6 4 11 16 11 27 0 21 -34 27 -46 8z"/>
<path d="M531 1811 c-19 -12 -6 -43 16 -39 10 2 18 12 18 22 0 22 -14 29 -34
17z"/>
<path d="M1877 1740 c6 -54 13 -80 13 -47 0 14 3 15 19 5 15 -9 23 -9 35 1 9
8 16 19 16 26 0 24 -30 40 -50 27 -16 -10 -20 -7 -29 16 -8 22 -9 16 -4 -28z"/>
<path d="M1112 1767 c-18 -22 11 -56 35 -41 25 15 23 48 -3 52 -11 2 -26 -3
-32 -11z"/>
<path d="M1494 1755 c-28 -44 13 -97 58 -74 32 17 41 48 23 75 -21 32 -59 32
-81 -1z"/>
<path d="M2554 1765 c-4 -9 -2 -21 4 -27 15 -15 44 -1 40 19 -4 23 -36 29 -44
8z"/>
<path d="M2843 1769 c-16 -16 -5 -39 17 -39 23 0 32 13 24 34 -7 19 -25 21
-41 5z"/>
<path d="M1209 1758 c-7 -18 -5 -97 2 -110 13 -25 61 -23 85 3 17 19 17 23 3
47 -8 15 -24 29 -34 31 -11 2 -24 9 -28 17 -7 12 -25 19 -28 12z"/>
<path d="M210 1735 c-15 -18 -5 -35 21 -35 12 0 19 7 19 19 0 24 -25 34 -40
16z"/>
<path d="M2702 1738 c-26 -26 -7 -78 28 -78 19 0 50 30 50 48 0 32 -54 54 -78
30z"/>
<path d="M333 1729 c-16 -16 -5 -39 19 -39 14 0 19 6 16 22 -4 25 -19 33 -35
17z"/>
<path d="M402 1729 c2 -6 8 -10 13 -10 5 0 11 4 13 10 2 6 -4 11 -13 11 -9 0
-15 -5 -13 -11z"/>
<path d="M2320 1710 c0 -15 5 -20 18 -18 9 2 17 10 17 18 0 8 -8 16 -17 18
-13 2 -18 -3 -18 -18z"/>
<path d="M1747 1714 c-9 -10 2 -24 19 -24 8 0 14 7 14 15 0 15 -21 21 -33 9z"/>
<path d="M2055 1711 c-6 -11 9 -23 19 -14 9 9 7 23 -3 23 -6 0 -12 -4 -16 -9z"/>
<path d="M2225 1711 c-6 -11 9 -23 19 -14 9 9 7 23 -3 23 -6 0 -12 -4 -16 -9z"/>
<path d="M1050 1690 c0 -11 7 -20 15 -20 8 0 15 9 15 20 0 11 -7 20 -15 20 -8
0 -15 -9 -15 -20z"/>
<path d="M487 1693 c-12 -11 -8 -23 8 -23 8 0 15 7 15 15 0 16 -12 20 -23 8z"/>
<path d="M2156 1681 c-4 -5 -2 -12 3 -15 5 -4 12 -2 15 3 4 5 2 12 -3 15 -5 4
-12 2 -15 -3z"/>
<path d="M1820 1664 c-11 -12 -11 -18 2 -30 20 -20 68 -9 68 16 0 30 -49 41
-70 14z"/>
<path d="M2236 1655 c-6 -17 17 -31 34 -20 8 5 8 11 -1 21 -15 18 -25 18 -33
-1z"/>
<path d="M302 1648 c6 -18 28 -21 28 -4 0 9 -7 16 -16 16 -9 0 -14 -5 -12 -12z"/>
<path d="M1644 1636 c-10 -26 4 -48 28 -44 17 2 23 10 23 28 0 18 -6 26 -23
28 -13 2 -25 -3 -28 -12z"/>
<path d="M525 1620 c-6 -20 9 -50 24 -50 22 0 43 28 37 48 -10 29 -52 30 -61
2z"/>
<path d="M2350 1630 c0 -5 7 -10 15 -10 8 0 15 5 15 10 0 6 -7 10 -15 10 -8 0
-15 -4 -15 -10z"/>
<path d="M392 1619 c2 -6 8 -10 13 -10 5 0 11 4 13 10 2 6 -4 11 -13 11 -9 0
-15 -5 -13 -11z"/>
<path d="M1137 1624 c-9 -10 2 -24 19 -24 8 0 14 7 14 15 0 15 -21 21 -33 9z"/>
<path d="M1432 1608 c-7 -7 -12 -24 -12 -38 0 -14 5 -31 12 -38 7 -7 24 -12
38 -12 14 0 31 5 38 12 7 7 12 24 12 38 0 14 -5 31 -12 38 -7 7 -24 12 -38 12
-14 0 -31 -5 -38 -12z"/>
<path d="M2128 1599 c-21 -12 -24 -59 -6 -77 7 -7 24 -12 38 -12 34 0 50 17
50 52 0 40 -43 60 -82 37z"/>
<path d="M2212 1599 c2 -6 8 -10 13 -10 5 0 11 4 13 10 2 6 -4 11 -13 11 -9 0
-15 -5 -13 -11z"/>
<path d="M2287 1603 c-3 -5 -2 -15 3 -22 10 -17 43 -6 38 12 -6 15 -34 22 -41
10z"/>
<path d="M1322 1589 c2 -6 8 -10 13 -10 5 0 11 4 13 10 2 6 -4 11 -13 11 -9 0
-15 -5 -13 -11z"/>
<path d="M2722 1588 c-21 -21 -14 -57 13 -70 22 -10 29 -9 47 10 19 18 20 25
10 47 -13 27 -49 34 -70 13z"/>
<path d="M1577 1573 c-13 -12 -7 -41 10 -47 21 -8 48 17 40 38 -6 16 -38 22
-50 9z"/>
<path d="M1781 1566 c-16 -20 -3 -46 24 -46 13 0 26 7 29 16 7 19 -10 44 -29
44 -7 0 -18 -6 -24 -14z"/>
<path d="M1710 1560 c0 -5 5 -10 11 -10 5 0 7 5 4 10 -3 6 -8 10 -11 10 -2 0
-4 -4 -4 -10z"/>
<path d="M1873 1544 c-4 -10 -2 -19 5 -22 8 -2 12 -37 12 -110 0 -58 2 -103 4
-101 3 2 6 58 7 123 2 85 -1 121 -9 124 -7 2 -15 -4 -19 -14z"/>
<path d="M2315 1530 c-8 -14 3 -30 21 -30 8 0 14 9 14 20 0 21 -24 28 -35 10z"/>
<path d="M2984 1526 c-10 -26 4 -48 28 -44 17 2 23 10 23 28 0 18 -6 26 -23
28 -13 2 -25 -3 -28 -12z"/>
<path d="M512 1521 c-8 -4 -12 -19 -10 -32 4 -29 45 -34 61 -7 19 30 -19 60
-51 39z"/>
<path d="M410 1490 c0 -15 5 -20 18 -18 9 2 17 10 17 18 0 8 -8 16 -17 18 -13
2 -18 -3 -18 -18z"/>
<path d="M1336 1494 c-8 -8 -13 -21 -10 -29 8 -21 32 -26 48 -9 17 16 12 40
-9 48 -8 3 -21 -2 -29 -10z"/>
<path d="M1715 1501 c-8 -15 3 -31 21 -31 9 0 14 7 12 17 -4 20 -24 28 -33 14z"/>
<path d="M2837 1504 c-14 -14 -7 -35 11 -32 9 2 17 10 17 17 0 16 -18 25 -28
15z"/>
<path d="M2909 1454 c-16 -20 0 -49 27 -49 35 0 28 64 -7 65 -4 0 -12 -7 -20
-16z"/>
<path d="M620 1420 c0 -15 5 -20 18 -18 9 2 17 10 17 18 0 8 -8 16 -17 18 -13
2 -18 -3 -18 -18z"/>
<path d="M2132 1424 c-49 -34 -6 -106 52 -85 14 6 26 15 26 20 0 5 3 16 6 24
6 17 -28 57 -49 57 -7 0 -23 -7 -35 -16z"/>
<path d="M1804 1419 c-10 -17 13 -36 27 -22 12 12 4 33 -11 33 -5 0 -12 -5
-16 -11z"/>
<path d="M2724 1415 c-7 -17 12 -45 31 -45 19 0 36 25 29 44 -8 20 -53 21 -60
1z"/>
<path d="M526 1394 c-9 -22 12 -46 38 -42 15 2 21 10 21 28 0 20 -6 26 -26 28
-18 2 -29 -3 -33 -14z"/>
<path d="M1045 1401 c-6 -11 9 -23 19 -14 9 9 7 23 -3 23 -6 0 -12 -4 -16 -9z"/>
<path d="M371 1377 c-18 -23 -2 -49 28 -45 20 2 26 8 26 28 0 29 -34 40 -54
17z"/>
<path d="M1136 1374 c-9 -8 -16 -19 -16 -24 0 -9 28 -40 36 -40 17 0 44 23 44
38 0 38 -37 53 -64 26z"/>
<path d="M1464 1365 c-4 -9 0 -23 8 -31 20 -20 50 -7 46 20 -4 26 -45 35 -54
11z"/>
<path d="M1984 1365 c-8 -21 2 -45 19 -45 8 0 20 7 27 15 10 12 10 18 0 30 -7
8 -19 15 -27 15 -7 0 -16 -7 -19 -15z"/>
<path d="M2873 1363 c-19 -7 -16 -50 4 -57 24 -10 51 20 37 41 -12 19 -23 24
-41 16z"/>
<path d="M470 1339 c0 -5 5 -7 10 -4 6 3 10 8 10 11 0 2 -4 4 -10 4 -5 0 -10
-5 -10 -11z"/>
<path d="M2310 1325 c-10 -12 -10 -18 0 -30 25 -30 67 -7 49 27 -12 22 -32 23
-49 3z"/>
<path d="M2956 1331 c-7 -11 18 -33 27 -24 4 3 7 12 7 20 0 15 -26 18 -34 4z"/>
<path d="M1754 1315 c-9 -23 3 -45 25 -45 20 0 37 32 26 50 -9 15 -45 12 -51
-5z"/>
<path d="M1415 1301 c-8 -15 3 -31 21 -31 9 0 14 7 12 17 -4 20 -24 28 -33 14z"/>
<path d="M514 1289 c-7 -12 15 -31 28 -23 4 3 8 12 8 20 0 17 -26 19 -36 3z"/>
<path d="M1600 1280 c0 -11 7 -20 15 -20 8 0 15 9 15 20 0 11 -7 20 -15 20 -8
0 -15 -9 -15 -20z"/>
<path d="M640 1270 c0 -15 5 -20 18 -18 9 2 17 10 17 18 0 8 -8 16 -17 18 -13
2 -18 -3 -18 -18z"/>
<path d="M1310 1276 c0 -9 5 -16 10 -16 6 0 10 4 10 9 0 6 -4 13 -10 16 -5 3
-10 -1 -10 -9z"/>
<path d="M2800 1276 c0 -21 21 -31 30 -15 5 7 6 17 4 21 -9 14 -34 9 -34 -6z"/>
<path d="M2196 1264 c-32 -31 -11 -84 32 -84 35 0 52 16 52 50 0 14 -5 31 -12
38 -17 17 -54 15 -72 -4z"/>
<path d="M1106 1245 c-17 -17 -12 -40 10 -49 35 -14 59 25 32 52 -16 16 -23
15 -42 -3z"/>
<path d="M1361 1246 c-8 -10 -7 -17 3 -26 17 -13 36 -6 36 15 0 19 -27 26 -39
11z"/>
<path d="M1670 1241 c-14 -28 13 -55 41 -41 22 12 25 30 7 48 -18 18 -36 15
-48 -7z"/>
<path d="M1232 1213 c2 -10 10 -18 18 -18 8 0 16 8 18 18 2 12 -3 17 -18 17
-15 0 -20 -5 -18 -17z"/>
<path d="M1502 1218 c-25 -25 0 -64 32 -52 21 8 21 50 0 58 -20 8 -18 8 -32
-6z"/>
<path d="M1883 1195 c0 -22 2 -30 4 -17 2 12 2 30 0 40 -3 9 -5 -1 -4 -23z"/>
<path d="M2891 1206 c-12 -14 -5 -26 16 -26 15 0 18 26 4 34 -5 3 -14 0 -20
-8z"/>
<path d="M1967 1182 c-21 -23 -22 -46 -1 -66 21 -21 57 -20 77 2 22 24 21 45
-1 65 -24 22 -55 21 -75 -1z"/>
<path d="M1333 1174 c-8 -21 13 -42 28 -27 13 13 5 43 -11 43 -6 0 -13 -7 -17
-16z"/>
<path d="M1392 1161 c4 -13 18 -16 19 -4 0 4 -5 9 -11 12 -7 2 -11 -2 -8 -8z"/>
<path d="M1630 1141 c-7 -15 -6 -24 6 -36 19 -18 33 -16 48 7 7 12 6 21 -3 32
-18 22 -38 20 -51 -3z"/>
<path d="M2115 1149 c-10 -15 3 -25 16 -12 7 7 7 13 1 17 -6 3 -14 1 -17 -5z"/>
<path d="M1144 1135 c-7 -18 12 -45 32 -45 16 0 33 30 27 48 -7 17 -52 15 -59
-3z"/>
<path d="M1274 1129 c-8 -14 11 -33 25 -25 16 10 13 36 -3 36 -8 0 -18 -5 -22
-11z"/>
<path d="M1720 1115 c0 -10 7 -15 18 -13 21 4 19 22 -2 26 -10 2 -16 -3 -16
-13z"/>
<path d="M2393 1123 c-7 -3 -13 -15 -13 -28 0 -13 6 -25 13 -28 17 -6 47 11
47 28 0 17 -30 34 -47 28z"/>
<path d="M1867 1060 c-4 -30 -6 -73 -6 -95 1 -23 5 -7 10 40 10 91 7 138 -4
55z"/>
<path d="M2200 1095 c-11 -13 -11 -19 3 -32 21 -21 49 -9 45 19 -4 28 -30 35
-48 13z"/>
<path d="M1072 1068 c7 -19 38 -22 38 -4 0 10 -9 16 -21 16 -12 0 -19 -5 -17
-12z"/>
<path d="M1224 1065 c-10 -25 4 -47 28 -43 15 2 24 11 26 25 3 17 0 21 -12 17
-9 -3 -16 -1 -16 5 0 16 -20 13 -26 -4z"/>
<path d="M1345 1070 c-3 -5 1 -10 9 -10 9 0 16 5 16 10 0 6 -4 10 -9 10 -6 0
-13 -4 -16 -10z"/>
<path d="M1570 1065 c0 -10 7 -15 18 -13 21 4 19 22 -2 26 -10 2 -16 -3 -16
-13z"/>
<path d="M2605 1051 c94 -12 230 -108 179 -128 -32 -12 -280 -345 -304 -408
-6 -15 -17 -25 -30 -25 -27 0 -25 13 9 52 34 40 59 107 42 117 -7 5 5 26 34
60 39 46 58 91 39 91 -7 0 -100 -99 -187 -200 -55 -63 -71 -89 -44 -74 6 4 2
-4 -11 -17 -18 -19 -26 -22 -40 -13 -9 6 -17 16 -17 22 0 6 37 54 83 107 46
53 81 99 78 104 -3 4 15 29 39 55 41 42 57 76 38 76 -14 -1 -258 -231 -271
-256 -15 -29 -24 -30 -47 -4 -21 23 -21 23 96 140 88 88 128 166 69 135 -16
-8 -52 -15 -80 -15 -27 0 -50 -4 -50 -10 0 -5 18 -10 41 -10 49 0 49 -17 0
-41 -41 -19 -51 -35 -51 -79 0 -41 -7 -53 -37 -68 -12 -7 -38 -46 -59 -88 -21
-41 -41 -77 -44 -79 -4 -2 -21 31 -38 73 -38 90 -166 329 -158 292 4 -14 22
-91 41 -171 39 -159 39 -169 -11 -228 l-28 -34 -95 7 c-182 12 -496 54 -535
70 -48 20 -45 20 -39 -4 9 -33 -38 -25 -84 15 -45 38 -53 42 -53 23 0 -7 -7
-26 -16 -43 -83 -157 -136 -272 -153 -334 -11 -40 -23 -81 -26 -92 -6 -19 11
-19 818 -19 l824 0 6 98 c4 53 7 133 7 176 0 44 5 118 12 164 9 64 9 85 0 90
-12 8 63 108 154 207 25 28 54 64 63 80 9 17 25 32 36 33 27 5 28 7 21 36 -4
16 -32 45 -73 76 -65 49 -67 50 -132 49 l-66 -2 50 -6z m-75 -501 c-6 -11 -13
-20 -16 -20 -2 0 0 9 6 20 6 11 13 20 16 20 2 0 0 -9 -6 -20z"/>
<path d="M1373 1024 c-7 -19 2 -28 22 -21 19 8 19 23 0 31 -9 3 -18 -1 -22
-10z"/>
<path d="M1654 999 c-10 -17 13 -36 27 -22 12 12 4 33 -11 33 -5 0 -12 -5 -16
-11z"/>
<path d="M778 970 c-39 -7 -100 -45 -137 -84 -18 -19 -19 -25 -7 -41 18 -25
46 -13 46 20 0 38 49 83 99 91 23 4 44 11 47 15 6 10 5 10 -48 -1z"/>
<path d="M1122 971 c-23 -14 -10 -46 21 -49 26 -3 28 -1 25 25 -3 29 -23 39
-46 24z"/>
<path d="M1272 963 c2 -10 10 -18 18 -18 22 0 18 29 -3 33 -14 3 -18 -1 -15
-15z"/>
<path d="M1801 866 c-17 -20 -2 -48 23 -44 24 3 34 37 14 49 -18 12 -24 11
-37 -5z"/>
<path d="M1652 828 c5 -15 28 -18 29 -3 0 6 -7 12 -17 13 -10 3 -15 -1 -12
-10z"/>
<path d="M2065 819 c-10 -15 3 -25 16 -12 7 7 7 13 1 17 -6 3 -14 1 -17 -5z"/>
<path d="M1190 790 c0 -20 39 -36 104 -42 39 -4 89 -10 111 -13 l40 -5 -44 20
c-67 31 -211 58 -211 40z"/>
<path d="M1724 785 c-4 -9 -2 -21 4 -27 16 -16 47 -5 47 17 0 26 -42 34 -51
10z"/>
<path d="M1560 765 c-17 -20 -5 -45 20 -45 11 0 23 7 26 15 6 15 -11 45 -26
45 -4 0 -13 -7 -20 -15z"/>
<path d="M1110 719 c0 -15 82 -171 87 -166 2 3 -6 30 -17 61 -12 31 -20 61
-18 66 2 5 28 -4 58 -20 140 -75 170 -90 170 -83 0 5 -12 15 -28 24 -15 8 -71
41 -125 72 -97 56 -127 67 -127 46z"/>
<path d="M1684 696 c-10 -26 4 -48 28 -44 17 2 23 10 23 28 0 18 -6 26 -23 28
-13 2 -25 -3 -28 -12z"/>
<path d="M1775 680 c-7 -12 2 -30 16 -30 5 0 9 9 9 20 0 21 -15 27 -25 10z"/>
<path d="M1625 630 c-3 -6 1 -13 10 -16 19 -8 30 0 20 15 -8 14 -22 14 -30 1z"/>
<path d="M1714 556 c-8 -22 3 -33 18 -18 9 9 9 15 0 24 -9 9 -13 7 -18 -6z"/>
</g>
</svg>
